<svg width="50" height="50" viewBox="0 0 50 50" fill="none" xmlns="http://www.w3.org/2000/svg">
<g filter="url(#filter0_d_419_67)">
<path d="M25 13.542V38.542" stroke="#191800" stroke-width="4" stroke-linecap="round"/>
<path d="M42.7085 13.542V38.542" stroke="#191800" stroke-width="4" stroke-linecap="round"/>
<path d="M7.2915 13.542V38.542" stroke="#191800" stroke-width="4" stroke-linecap="round"/>
<path d="M42.7083 38.5417C42.7083 38.5417 40.625 34.375 33.3333 34.375C26.0417 34.375 25 38.5417 25 38.5417" stroke="#191800" stroke-width="4" stroke-linecap="round"/>
<path d="M7.2915 38.5417C7.2915 38.5417 9.37484 34.375 16.6665 34.375C23.9582 34.375 24.9998 38.5417 24.9998 38.5417" stroke="#191800" stroke-width="4" stroke-linecap="round"/>
<path d="M42.7083 13.5417C42.7083 13.5417 40.625 9.375 33.3333 9.375C26.0417 9.375 25 13.5417 25 13.5417" stroke="#191800" stroke-width="4" stroke-linecap="round"/>
<path d="M7.2915 13.5417C7.2915 13.5417 9.37484 9.375 16.6665 9.375C23.9582 9.375 24.9998 13.5417 24.9998 13.5417" stroke="#191800" stroke-width="4" stroke-linecap="round"/>
</g>
<defs>
<filter id="filter0_d_419_67" x="-4" y="0" width="58" height="58" filterUnits="userSpaceOnUse" color-interpolation-filters="sRGB">
<feFlood flood-opacity="0" result="BackgroundImageFix"/>
<feColorMatrix in="SourceAlpha" type="matrix" values="0 0 0 0 0 0 0 0 0 0 0 0 0 0 0 0 0 0 127 0" result="hardAlpha"/>
<feOffset dy="4"/>
<feGaussianBlur stdDeviation="2"/>
<feComposite in2="hardAlpha" operator="out"/>
<feColorMatrix type="matrix" values="0 0 0 0 0 0 0 0 0 0 0 0 0 0 0 0 0 0 0.25 0"/>
<feBlend mode="normal" in2="BackgroundImageFix" result="effect1_dropShadow_419_67"/>
<feBlend mode="normal" in="SourceGraphic" in2="effect1_dropShadow_419_67" result="shape"/>
</filter>
</defs>
</svg>
