<svg width="37" height="37" viewBox="0 0 37 37" fill="none" xmlns="http://www.w3.org/2000/svg">
<path d="M25.4375 31.6045H11.5625" stroke="#003352" stroke-width="2" stroke-linecap="round"/>
<path d="M19.2707 28.5212C19.2707 28.9468 18.9255 29.292 18.4998 29.292C18.0742 29.292 17.729 28.9468 17.729 28.5212H19.2707ZM17.729 28.5212V24.667H19.2707V28.5212H17.729Z" fill="#003352"/>
<path d="M16.1875 14.6455H20.8125" stroke="#003352" stroke-width="2" stroke-linecap="round"/>
<path d="M8.47933 22.3538C8.47933 22.3538 5.396 20.0413 5.396 16.1872C5.396 15.0073 5.396 13.9718 5.396 13.103C5.396 11.4001 6.77645 10.0205 8.47933 10.0205C10.1822 10.0205 11.5627 11.401 11.5627 13.1038V14.6455" stroke="#003352" stroke-width="2" stroke-linecap="round"/>
<path d="M28.5208 22.3538C28.5208 22.3538 31.6042 20.0413 31.6042 16.1872C31.6042 15.0073 31.6042 13.9718 31.6042 13.103C31.6042 11.4001 30.2238 10.0205 28.5208 10.0205C26.8179 10.0205 25.4375 11.401 25.4375 13.1038V14.6455" stroke="#003352" stroke-width="2" stroke-linecap="round"/>
<path d="M25.4375 17.5126V11.5628C25.4375 9.85995 24.0571 8.47949 22.3542 8.47949H14.6458C12.943 8.47949 11.5625 9.85995 11.5625 11.5628V17.5126C11.5625 19.5744 12.593 21.4998 14.3085 22.6436L17.6448 24.8677C18.1627 25.2129 18.8373 25.2129 19.3552 24.8677L22.6915 22.6436C24.407 21.4998 25.4375 19.5744 25.4375 17.5126Z" stroke="#003352" stroke-width="2"/>
</svg>
