<svg width="48" height="51" viewBox="0 0 48 51" fill="none" xmlns="http://www.w3.org/2000/svg">
<path d="M24 5.59375C18.9609 5.59375 14.1282 7.69249 10.565 11.4283C7.00178 15.164 5 20.2308 5 25.514C5 30.7972 7.00178 35.864 10.565 39.5998C14.1282 43.3356 18.9609 45.4343 24 45.4343C29.0391 45.4343 33.8718 43.3356 37.435 39.5998C40.9982 35.864 43 30.7972 43 25.514C43 20.2308 40.9982 15.164 37.435 11.4283C33.8718 7.69249 29.0391 5.59375 24 5.59375Z" fill="white"/>
<path d="M26.572 30.7938H31.489L32.261 25.5569H26.571V22.6947C26.571 20.5191 27.249 18.59 29.19 18.59H32.309V14.0199C31.761 13.9423 30.602 13.7725 28.412 13.7725C23.839 13.7725 21.158 16.3044 21.158 22.0729V25.5569H16.457V30.7938H21.158V45.1878C22.089 45.3346 23.032 45.4342 24 45.4342C24.875 45.4342 25.729 45.3503 26.572 45.2308V30.7938Z" fill="#474747"/>
</svg>
