<svg width="50" height="50" viewBox="0 0 50 50" fill="none" xmlns="http://www.w3.org/2000/svg">
<path d="M38.5417 26.0413C40.8429 26.0413 42.7083 24.1759 42.7083 21.8747C42.7083 19.5735 40.8429 17.708 38.5417 17.708C36.2405 17.708 34.375 19.5735 34.375 21.8747C34.375 24.1759 36.2405 26.0413 38.5417 26.0413Z" stroke="white" stroke-width="3"/>
<path d="M38.5417 22.9163C39.117 22.9163 39.5833 22.45 39.5833 21.8747C39.5833 21.2994 39.117 20.833 38.5417 20.833C37.9664 20.833 37.5 21.2994 37.5 21.8747C37.5 22.45 37.9664 22.9163 38.5417 22.9163Z" fill="white"/>
<path d="M17.7085 31.25C19.4344 31.25 20.8335 29.8509 20.8335 28.125C20.8335 26.3991 19.4344 25 17.7085 25C15.9826 25 14.5835 26.3991 14.5835 28.125C14.5835 29.8509 15.9826 31.25 17.7085 31.25Z" fill="white"/>
<path d="M17.7085 28.125C25.195 28.125 27.6372 18.0365 28.0562 11.4544C28.1293 10.3062 27.1925 9.375 26.0418 9.375H23.9585" stroke="white" stroke-width="3" stroke-linecap="round"/>
<path d="M17.7082 28.125C10.2217 28.125 7.77951 18.0365 7.36045 11.4544C7.28735 10.3062 8.22429 9.375 9.37487 9.375H11.4582" stroke="white" stroke-width="3" stroke-linecap="round"/>
<path d="M38.5418 26.042V30.2087C38.5418 35.9616 33.8781 40.6253 28.1252 40.6253C22.3722 40.6253 17.7085 35.9616 17.7085 30.2087V28.1253" stroke="white" stroke-width="3" stroke-linecap="round"/>
</svg>
