<svg width="36" height="36" viewBox="0 0 36 36" fill="none" xmlns="http://www.w3.org/2000/svg">
<path d="M12.75 12.75H23.25C24.9069 12.75 26.25 14.0931 26.25 15.75V21.75C26.25 23.4069 24.9069 24.75 23.25 24.75H12.75C11.0931 24.75 9.75 23.4069 9.75 21.75V15.75C9.75 14.0931 11.0931 12.75 12.75 12.75Z" stroke="#003352" stroke-width="2" stroke-linecap="round" stroke-linejoin="round"/>
<path d="M9.74994 15.75H7.23678C5.5214 15.75 4.31012 17.4306 4.85258 19.058C5.10272 19.8084 5.6916 20.3972 6.44204 20.6474L9.74994 21.75" stroke="#003352" stroke-width="2" stroke-linecap="round" stroke-linejoin="round"/>
<path d="M26.25 15.75H28.7631C30.4785 15.75 31.6897 17.4306 31.1473 19.058C30.8971 19.8084 30.3084 20.3972 29.5579 20.6474L26.25 21.75" stroke="#003352" stroke-width="2" stroke-linecap="round" stroke-linejoin="round"/>
<path d="M18 15.75V21.75" stroke="#003352" stroke-width="2" stroke-linecap="round" stroke-linejoin="round"/>
<path d="M21 18.75H15" stroke="#003352" stroke-width="2" stroke-linecap="round" stroke-linejoin="round"/>
</svg>
